<?xml version="1.0" encoding="UTF-8" standalone="no"?>
<!-- Created with Inkscape (http://www.inkscape.org/) -->

<svg
   width="55.721169mm"
   height="9.4509163mm"
   viewBox="0 0 55.721169 9.4509163"
   version="1.1"
   id="svg5"
   inkscape:version="1.1 (c68e22c387, 2021-05-23)"
   sodipodi:docname="wordmark1.svg"
   xmlns:inkscape="http://www.inkscape.org/namespaces/inkscape"
   xmlns:sodipodi="http://sodipodi.sourceforge.net/DTD/sodipodi-0.dtd"
   xmlns="http://www.w3.org/2000/svg"
   xmlns:svg="http://www.w3.org/2000/svg">
  <sodipodi:namedview
     id="namedview7"
     pagecolor="#ffffff"
     bordercolor="#666666"
     borderopacity="1.0"
     inkscape:pageshadow="2"
     inkscape:pageopacity="0.0"
     inkscape:pagecheckerboard="0"
     inkscape:document-units="mm"
     showgrid="false"
     fit-margin-top="0"
     fit-margin-left="0"
     fit-margin-right="0"
     fit-margin-bottom="0"
     inkscape:zoom="3.0003928"
     inkscape:cx="151.81346"
     inkscape:cy="0"
     inkscape:window-width="1920"
     inkscape:window-height="1046"
     inkscape:window-x="-11"
     inkscape:window-y="-11"
     inkscape:window-maximized="1"
     inkscape:current-layer="text3957" />
  <defs
     id="defs2">
    <rect
       x="45.248909"
       y="490.66785"
       width="247.45499"
       height="52.790394"
       id="rect3959" />
    <rect
       x="58.658985"
       y="469.27188"
       width="222.63751"
       height="99.986908"
       id="rect1376" />
    <clipPath
       clipPathUnits="userSpaceOnUse"
       id="clipEmfPath1">
      <path
         d="M 0,0 H 350.37984 V 112.9474 H 0 Z"
         id="path1644" />
    </clipPath>
    <pattern
       id="EMFhbasepattern"
       patternUnits="userSpaceOnUse"
       width="6"
       height="6"
       x="0"
       y="0" />
  </defs>
  <g
     inkscape:label="レイヤー 1"
     inkscape:groupmode="layer"
     id="layer1"
     transform="translate(-12.700012,-131.67465)">
    <text
       xml:space="preserve"
       transform="scale(0.26458333)"
       id="text1374"
       style="font-style:normal;font-weight:normal;font-size:40px;line-height:1.25;font-family:sans-serif;white-space:pre;shape-inside:url(#rect1376);fill:#000000;fill-opacity:1;stroke:none" />
    <g
       aria-label="第10回兎原祭"
       transform="scale(0.26458333)"
       id="text3957"
       style="font-size:40px;line-height:1.25;font-family:Tanugo-S-TTF;-inkscape-font-specification:Tanugo-S-TTF;white-space:pre;shape-inside:url(#rect3959)">
      <path
         d="m 54.368047,509.97197 h -3.328 l -1.376,5.056 -1.664,-0.288 2.72,-9.984 1.664,0.288 -1.056,3.904 h 9.312 v 1.024 h -4.576 l 0.832,4 -1.664,0.192 z m 11.744,-4.8 -1.536,3.776 h 10.4 v 1.024 h -3.616 l -1.792,4.096 -1.536,-0.384 1.6,-3.712 h -5.472 l -1.408,3.424 -1.536,-0.384 3.36,-8.224 z m 5.696,15.744 h -8.576 v 3.776 h 11.072 l -1.376,7.136 -7.392,-1.12 0.256,-1.024 5.728,0.864 0.928,-4.832 h -9.216 v 6.848 h -1.664 v -6.848 h -1.472 l -10.112,5.6 -0.8,-0.896 8.48,-4.704 h -8.32 l 0.8,-4.8 h -1.12 v -1.024 h 12.544 v -3.936 h -11.04 v -1.024 h 22.944 v 6.624 h -1.664 z m 0,-4.96 h -8.576 v 3.936 h 8.576 z m -19.968,4.96 -0.64,3.776 h 10.368 v -3.776 z"
         style="font-weight:300;font-size:32px;-inkscape-font-specification:'Tanugo-S-TTF Light'"
         id="path16633" />
      <path
         d="m 79.647986,513.26797 3.68,-6.752 1.568,0.256 v 24.096 h -1.664 v -20.96 l -2.112,3.872 z"
         style="font-weight:300;font-size:32px;-inkscape-font-specification:'Tanugo-S-TTF Light'"
         id="path16635" />
      <path
         d="m 99.903965,506.67597 q 3.296005,0 5.088005,2.976 1.792,2.976 1.792,8.384 0,6.048 -1.92,9.376 -1.888,3.328 -5.376005,3.328 -2.272,0 -3.936,-1.504 -1.664,-1.504 -2.56,-4.32 -0.864,-2.816 -0.864,-6.624 0,-5.632 1.984,-8.608 2.016,-3.008 5.792,-3.008 z m 0,1.024 q -2.944,0 -4.544,2.752 -1.568,2.72 -1.568,7.84 0,3.424 0.704,6.016 0.736,2.592 2.016,4 1.28,1.408 2.976,1.408 1.728005,0 2.976005,-1.408 1.28,-1.408 1.952,-4.032 0.704,-2.624 0.704,-6.24 0,-3.2 -0.64,-5.536 -0.64,-2.336 -1.824,-3.552 -1.152,-1.248 -2.752005,-1.248 z"
         style="font-weight:300;font-size:32px;-inkscape-font-specification:'Tanugo-S-TTF Light'"
         id="path16637" />
      <path
         d="m 114.11196,504.56397 v 1.376 h 23.04 v 26.752 h -1.664 v -1.344 h -21.376 v 1.344 h -1.664 v -28.128 z m 0,2.4 v 23.36 h 21.376 v -23.36 z m 6.592,2.912 v 0.896 h 9.888 v 16.512 h -1.664 v -0.864 h -8.224 v 0.864 h -1.664 v -17.408 z m 0,1.92 v 13.6 h 8.224 v -13.6 z"
         style="font-weight:300;font-size:32px;-inkscape-font-specification:'Tanugo-S-TTF Light'"
         id="path16639" />
      <path
         d="m 173.6799,526.02797 h 3.84 v 6.2 h -16.72 v -11.88 h -1.92 q -2.4,3.92 -5.64,7 -3.24,3.04 -6.96,5 l -1.8,-1.76 q 2.92,-1.56 5.6,-4.16 2.72,-2.64 4.84,-6.08 h -5.28 v 0.4 h -3.84 v -12.84 h 3.84 v 0.4 h 10.04 q 0.56,-2.96 0.68,-5.76 l -14.84,2.88 -0.72,-1.84 30.52,-5.92 0.72,1.84 -11.8,2.28 q -0.04,3.28 -0.68,6.52 h 12.36 v 12.44 h -3.84 v -0.4 h -7.44 v 9.96 h 9.04 z m -24.04,-7.6 h 6.4 q 2.04,-3.8 3.2,-8.2 h -9.6 z m 13.48,-8.2 q -1.16,4.52 -3.16,8.2 h 12.12 v -8.2 z m 8.8,18.08 -3.68,0.44 -1.64,-6.4 3.68,-0.48 z"
         id="path16641" />
      <path
         d="m 186.15982,501.42797 v -1.92 h 32.8 v 1.92 h -12.32 l -1.44,4.52 h 11.52 v 16.2 h -3.84 v -1.36 h -6.32 v 12.4 l -8.24,-0.76 0.32,-1.92 4.08,0.4 v -10.12 h -5.52 v 1.36 h -3.84 v -17.08 h 3.84 v 0.88 h 4.12 l 1.44,-4.52 h -12.28 l -2.36,31.68 -3.84,-0.16 2.36,-31.52 z m 11.04,11.16 h 15.68 v -4.72 h -15.68 z m 0,1.92 v 4.36 h 15.68 v -4.36 z m -6.16,16.76 5.92,-7.96 3.04,1.12 -5.92,7.96 z m 24.12,1.2 -5.72,-8 3.12,-1.12 5.72,8 z"
         id="path16643" />
      <path
         d="m 230.03975,511.82797 -2.68,-1.44 -0.48,1 -3.44,-0.8 6.28,-12.8 3.44,0.8 -0.44,0.92 h 9.12 l -10.4,16.16 h 20 l -4.4,-4.16 -2.64,3.24 -2.96,-1.2 3.36,-4.16 -4.28,-4 2.64,-1.4 3.4,3.2 4.68,-5.76 h -7.4 v -1.92 h 12.92 l -7.96,9.8 9.8,9.2 -2.64,1.4 -3.16,-2.96 v 0.64 h -22.56 l -1.84,2.84 -3.2,-1.04 z m 4.2,-6.52 2.48,-3.88 h -4.96 l -0.92,1.88 z m -4.48,0.2 -1.36,2.76 2.92,1.56 1.6,-2.48 z m 9.88,18.16 h -15.88 v -1.92 h 34.4 v 1.92 h -14.68 v 9.72 l -10.52,-0.88 0.32,-1.92 6.36,0.52 z m -14.92,7.44 8.4,-6.36 2.32,1.52 -8.4,6.36 z m 28.92,1.8 -7.32,-6.72 2.56,-1.4 7.32,6.76 z"
         id="path16645" />
    </g>
  </g>
</svg>
